<svg width="238" height="238" xmlns="http://www.w3.org/2000/svg" xmlns:xlink="http://www.w3.org/1999/xlink" xml:space="preserve" overflow="hidden"><g transform="translate(-471 -192)"><path d="M590 412.646C582.332 412.646 578.348 408.275 574.78 403.287 572.011 399.417 570.224 397.206 565.741 396.794 560.22 396.298 554.992 399.3 548.938 402.784 538.894 408.568 526.395 415.76 508.544 407.335 506.085 406.13 505.069 403.16 506.274 400.701 507.454 398.293 510.335 397.26 512.776 398.368 525.941 404.581 534.306 399.764 543.989 394.191 550.876 390.224 557.989 386.124 566.649 386.92 575.866 387.765 579.897 393.4 582.845 397.516 586.356 402.419 588.118 404.881 599.061 400.49 601.604 399.473 604.49 400.71 605.507 403.252 606.524 405.795 605.288 408.681 602.745 409.698 598.721 411.475 594.396 412.475 590 412.646Z"/><path d="M531.244 350.463C525.666 359.478 513.778 379.921 508.847 397.714 508.828 397.805 508.886 397.894 508.977 397.913 509.04 397.927 509.105 397.903 509.144 397.853 513.54 392.58 518.577 387.877 524.138 383.853L524.138 383.853C524.208 383.647 528.452 371.554 541.029 352.434 541.053 352.397 541.097 352.378 541.141 352.385 545.653 352.782 550.198 352.206 554.469 350.694 571.865 345.865 584.466 329.331 585.706 327.638 585.756 327.571 585.706 327.496 585.617 327.496 578.903 327.417 572.29 325.847 566.257 322.9 566.104 322.825 566 322.677 565.982 322.508 565.972 322.439 565.979 322.369 566.002 322.303 566.074 322.066 566.31 321.919 566.555 321.958L566.569 321.958C579.842 324.061 593.244 319.043 601.87 308.739 607.228 302.297 613.116 296.316 619.472 290.857 627.448 284.007 637.541 277.206 646.867 270.176 647.353 269.789 647.433 269.083 647.047 268.598 646.878 268.385 646.638 268.241 646.371 268.192 640.235 267.047 634.403 264.643 629.24 261.134 629.119 261.052 629.04 260.922 629.025 260.777 629.012 260.684 629.028 260.589 629.069 260.504 629.175 260.28 629.43 260.169 629.667 260.244 637.454 262.623 645.739 262.866 653.653 260.948 658.311 259.798 662.49 257.21 665.595 253.55 673.853 243.904 677.247 233.533 669.713 221.852 664.576 213.886 653.125 210.447 638.282 212.161 629.59 213.076 622.148 218.794 619.024 226.956 617.957 229.816 617.184 232.776 616.716 235.792 616.716 236.066 616.494 236.288 616.22 236.288 615.946 236.288 615.724 236.066 615.724 235.792 615.652 235.296 615.59 234.8 615.533 234.305 614.982 229.377 615.244 224.393 616.309 219.551 616.455 218.962 616.096 218.367 615.507 218.221 615.293 218.168 615.068 218.18 614.861 218.257 603.231 222.919 592.235 229.032 582.136 236.449 570.44 244.867 559.714 254.556 550.155 265.339 544.019 272.231 540.738 281.203 540.982 290.428 541.135 294.297 541.789 298.13 542.926 301.832 543.019 302.089 542.886 302.374 542.629 302.467 542.407 302.548 542.158 302.461 542.036 302.258 538.863 297.587 536.593 292.364 535.342 286.858L535.139 286.826C529.218 298.178 522.815 315.958 521.803 327.732 521.166 335.199 523.258 341.898 527.104 345.547 527.145 345.591 527.214 345.592 527.258 345.55 527.265 345.542 527.272 345.534 527.277 345.525 536.571 329.133 555.376 301.215 568.766 287.805 578.973 277.33 590.364 268.079 602.711 260.239 604.45 259.143 606.34 258.308 608.321 257.76 608.58 257.671 608.862 257.808 608.951 258.067 609.027 258.288 608.939 258.531 608.74 258.652 598.588 265.717 589.084 273.672 580.344 282.423 564.893 297.888 543.325 327.675 532.937 347.444 532.394 348.485 531.846 349.474 531.244 350.463Z"/></g></svg>